<svg width="546" height="198" viewBox="0 0 546 198" fill="none" xmlns="http://www.w3.org/2000/svg">
<path d="M100.516 72V36.164L84.582 64.002H81.854L65.858 36.164V72H61.518V27.98H65.982L83.156 58.112L100.454 27.98H104.856V72H100.516ZM121.779 72V27.98H126.119V72H121.779ZM143.048 72V27.98H147.388V68.156H172.808V72H143.048ZM185.084 72V27.98H189.424V72H185.084ZM239.749 27.98H243.407L261.697 72H257.109L251.405 58.236H231.627L225.985 72H221.335L239.749 27.98ZM250.413 54.826L241.547 33.064L232.557 54.826H250.413ZM278.237 35.978V72H273.897V27.98H277.493L306.385 64.684V28.042H310.725V72H306.695L278.237 35.978ZM327.68 72V27.98H342.622C347.292 27.98 351.178 28.972 354.278 30.956C357.419 32.8987 359.775 35.544 361.346 38.892C362.916 42.1987 363.702 45.8773 363.702 49.928C363.702 54.392 362.834 58.2773 361.098 61.584C359.403 64.8907 356.964 67.4533 353.782 69.272C350.64 71.0907 346.92 72 342.622 72H327.68ZM359.362 49.928C359.362 46.4147 358.7 43.294 357.378 40.566C356.096 37.838 354.216 35.7093 351.736 34.18C349.256 32.6093 346.218 31.824 342.622 31.824H332.02V68.156H342.622C346.259 68.156 349.318 67.35 351.798 65.738C354.278 64.126 356.158 61.956 357.44 59.228C358.721 56.4587 359.362 53.3587 359.362 49.928ZM377.89 72V27.98H382.23V72H377.89ZM403.499 35.978V72H399.159V27.98H402.755L431.647 64.684V28.042H435.987V72H431.957L403.499 35.978ZM466.581 27.98H470.239L488.529 72H483.941L478.237 58.236H458.459L452.817 72H448.167L466.581 27.98ZM477.245 54.826L468.379 33.064L459.389 54.826H477.245Z" fill="black"/>
<path d="M64.49 167V135.21L50.355 159.905H47.935L33.745 135.21V167H29.895V127.95H33.855L49.09 154.68L64.435 127.95H68.34V167H64.49ZM94.0774 127.95H97.3224L113.547 167H109.477L104.417 154.79H86.8724L81.8674 167H77.7424L94.0774 127.95ZM103.537 151.765L95.6724 132.46L87.6974 151.765H103.537ZM122.995 167V128.005H126.845V150.665L148.35 127.95H152.585L136.635 145.11L153.41 167H149.065L134.16 147.42L126.845 155.01V167H122.995ZM188.422 163.59V167H162.187V127.95H187.927V131.36H166.037V145.44H185.122V148.685H166.037V163.59H188.422ZM215.448 167.275C212.368 167.275 209.764 166.725 207.638 165.625C205.511 164.525 203.824 163.058 202.578 161.225C201.331 159.355 200.414 157.247 199.828 154.9C199.278 152.553 199.003 150.133 199.003 147.64V127.95H202.798V147.64C202.798 149.657 202.999 151.637 203.403 153.58C203.843 155.523 204.539 157.265 205.493 158.805C206.446 160.345 207.729 161.573 209.343 162.49C210.956 163.37 212.973 163.81 215.393 163.81C217.886 163.81 219.939 163.352 221.553 162.435C223.203 161.482 224.486 160.235 225.403 158.695C226.356 157.155 227.034 155.432 227.438 153.525C227.841 151.582 228.043 149.62 228.043 147.64V127.95H231.893V147.64C231.893 150.243 231.599 152.737 231.013 155.12C230.426 157.503 229.473 159.593 228.153 161.39C226.869 163.187 225.183 164.617 223.093 165.68C221.003 166.743 218.454 167.275 215.448 167.275ZM244.921 167V127.95H261.091C262.778 127.95 264.318 128.298 265.711 128.995C267.141 129.692 268.37 130.645 269.396 131.855C270.423 133.028 271.23 134.348 271.816 135.815C272.403 137.245 272.696 138.712 272.696 140.215C272.696 142.342 272.22 144.358 271.266 146.265C270.35 148.135 269.048 149.657 267.361 150.83C265.675 152.003 263.695 152.59 261.421 152.59H248.771V167H244.921ZM248.771 149.18H261.256C262.796 149.18 264.135 148.758 265.271 147.915C266.408 147.072 267.288 145.972 267.911 144.615C268.535 143.258 268.846 141.792 268.846 140.215C268.846 138.602 268.48 137.117 267.746 135.76C267.013 134.403 266.041 133.34 264.831 132.57C263.658 131.763 262.356 131.36 260.926 131.36H248.771V149.18ZM322.229 135.265C321.679 134.642 321.037 134.092 320.304 133.615C319.57 133.102 318.745 132.662 317.829 132.295C316.912 131.928 315.922 131.635 314.859 131.415C313.832 131.195 312.732 131.085 311.559 131.085C308.149 131.085 305.637 131.745 304.024 133.065C302.447 134.348 301.659 136.108 301.659 138.345C301.659 139.885 302.025 141.095 302.759 141.975C303.529 142.855 304.72 143.57 306.334 144.12C307.947 144.67 310 145.238 312.494 145.825C315.28 146.412 317.682 147.108 319.699 147.915C321.715 148.722 323.274 149.822 324.374 151.215C325.474 152.572 326.024 154.423 326.024 156.77C326.024 158.567 325.675 160.125 324.979 161.445C324.282 162.765 323.31 163.865 322.064 164.745C320.817 165.625 319.332 166.285 317.609 166.725C315.885 167.128 313.997 167.33 311.944 167.33C309.927 167.33 307.984 167.128 306.114 166.725C304.28 166.285 302.539 165.662 300.889 164.855C299.239 164.012 297.699 162.948 296.269 161.665L298.194 158.53C298.89 159.263 299.715 159.96 300.669 160.62C301.659 161.243 302.74 161.812 303.914 162.325C305.124 162.838 306.407 163.242 307.764 163.535C309.157 163.792 310.587 163.92 312.054 163.92C315.17 163.92 317.59 163.352 319.314 162.215C321.074 161.078 321.954 159.392 321.954 157.155C321.954 155.542 321.514 154.258 320.634 153.305C319.754 152.315 318.434 151.508 316.674 150.885C314.914 150.262 312.75 149.657 310.184 149.07C307.47 148.447 305.179 147.75 303.309 146.98C301.439 146.21 300.027 145.202 299.074 143.955C298.157 142.672 297.699 140.985 297.699 138.895C297.699 136.475 298.285 134.44 299.459 132.79C300.669 131.103 302.319 129.838 304.409 128.995C306.499 128.115 308.9 127.675 311.614 127.675C313.337 127.675 314.932 127.858 316.399 128.225C317.902 128.555 319.277 129.05 320.524 129.71C321.807 130.37 322.999 131.195 324.099 132.185L322.229 135.265ZM364.328 131.36H350.413V167H346.563V131.36H332.648V127.95H364.328V131.36ZM389.922 167.275C386.842 167.275 384.239 166.725 382.112 165.625C379.986 164.525 378.299 163.058 377.052 161.225C375.806 159.355 374.889 157.247 374.302 154.9C373.752 152.553 373.477 150.133 373.477 147.64V127.95H377.272V147.64C377.272 149.657 377.474 151.637 377.877 153.58C378.317 155.523 379.014 157.265 379.967 158.805C380.921 160.345 382.204 161.573 383.817 162.49C385.431 163.37 387.447 163.81 389.867 163.81C392.361 163.81 394.414 163.352 396.027 162.435C397.677 161.482 398.961 160.235 399.877 158.695C400.831 157.155 401.509 155.432 401.912 153.525C402.316 151.582 402.517 149.62 402.517 147.64V127.95H406.367V147.64C406.367 150.243 406.074 152.737 405.487 155.12C404.901 157.503 403.947 159.593 402.627 161.39C401.344 163.187 399.657 164.617 397.567 165.68C395.477 166.743 392.929 167.275 389.922 167.275ZM419.396 167V127.95H432.651C436.794 127.95 440.241 128.83 442.991 130.59C445.778 132.313 447.868 134.66 449.261 137.63C450.654 140.563 451.351 143.827 451.351 147.42C451.351 151.38 450.581 154.827 449.041 157.76C447.538 160.693 445.374 162.967 442.551 164.58C439.764 166.193 436.464 167 432.651 167H419.396ZM447.501 147.42C447.501 144.303 446.914 141.535 445.741 139.115C444.604 136.695 442.936 134.807 440.736 133.45C438.536 132.057 435.841 131.36 432.651 131.36H423.246V163.59H432.651C435.878 163.59 438.591 162.875 440.791 161.445C442.991 160.015 444.659 158.09 445.796 155.67C446.933 153.213 447.501 150.463 447.501 147.42ZM462.562 167V127.95H466.412V167H462.562ZM495.785 167.275C493.035 167.275 490.542 166.725 488.305 165.625C486.068 164.525 484.143 163.04 482.53 161.17C480.917 159.263 479.67 157.137 478.79 154.79C477.91 152.407 477.47 149.968 477.47 147.475C477.47 144.872 477.928 142.397 478.845 140.05C479.762 137.667 481.045 135.558 482.695 133.725C484.382 131.855 486.343 130.388 488.58 129.325C490.817 128.225 493.237 127.675 495.84 127.675C498.59 127.675 501.083 128.243 503.32 129.38C505.557 130.517 507.463 132.038 509.04 133.945C510.653 135.852 511.9 137.978 512.78 140.325C513.66 142.672 514.1 145.073 514.1 147.53C514.1 150.133 513.642 152.627 512.725 155.01C511.808 157.357 510.525 159.465 508.875 161.335C507.225 163.168 505.282 164.617 503.045 165.68C500.808 166.743 498.388 167.275 495.785 167.275ZM481.32 147.475C481.32 149.602 481.668 151.655 482.365 153.635C483.062 155.578 484.052 157.32 485.335 158.86C486.618 160.363 488.14 161.573 489.9 162.49C491.697 163.37 493.658 163.81 495.785 163.81C498.022 163.81 500.02 163.352 501.78 162.435C503.577 161.482 505.098 160.235 506.345 158.695C507.628 157.118 508.6 155.358 509.26 153.415C509.92 151.472 510.25 149.492 510.25 147.475C510.25 145.348 509.902 143.313 509.205 141.37C508.508 139.427 507.5 137.685 506.18 136.145C504.897 134.605 503.375 133.395 501.615 132.515C499.855 131.635 497.912 131.195 495.785 131.195C493.585 131.195 491.587 131.653 489.79 132.57C488.03 133.487 486.508 134.733 485.225 136.31C483.978 137.85 483.007 139.592 482.31 141.535C481.65 143.478 481.32 145.458 481.32 147.475Z" fill="black"/>
<line y1="92" x2="546" y2="92" stroke="#A3857F" stroke-width="6"/>
</svg>
